<svg version="1.2" xmlns="http://www.w3.org/2000/svg" viewBox="0 0 500 500" width="500" height="500">
	<title>404-svg</title>
	<defs>
		<linearGradient id="g1" x1="252.6" y1="361.1" x2="252.6" y2="50.9" gradientUnits="userSpaceOnUse">
			<stop offset=".002" stop-color="#d6e1f4"/>
			<stop offset=".343" stop-color="#e1e8f3"/>
			<stop offset=".997" stop-color="#f2f2f2"/>
		</linearGradient>
		<linearGradient id="g2" x1="318.2" y1="168.6" x2="406.7" y2="168.6" gradientUnits="userSpaceOnUse">
			<stop offset="0" stop-color="#ffae2a"/>
			<stop offset=".383" stop-color="#ffcc16"/>
			<stop offset=".763" stop-color="#ffe306"/>
			<stop offset="1" stop-color="#ffec00"/>
		</linearGradient>
		<linearGradient id="g3" x1="313.1" y1="236.8" x2="441.5" y2="236.8" gradientUnits="userSpaceOnUse">
			<stop offset=".004" stop-color="#008da2"/>
			<stop offset=".41" stop-color="#1babc0"/>
			<stop offset="1" stop-color="#47dcf2"/>
		</linearGradient>
		<linearGradient id="g4" x1="168.8" y1="202.5" x2="108.1" y2="93.2" gradientUnits="userSpaceOnUse">
			<stop offset="0" stop-color="#ffae2a"/>
			<stop offset=".383" stop-color="#ffcc16"/>
			<stop offset=".763" stop-color="#ffe306"/>
			<stop offset="1" stop-color="#ffec00"/>
		</linearGradient>
		<linearGradient id="g5" x1="64.1" y1="228.2" x2="192.5" y2="228.2" gradientUnits="userSpaceOnUse">
			<stop offset=".004" stop-color="#008da2"/>
			<stop offset=".41" stop-color="#1babc0"/>
			<stop offset="1" stop-color="#47dcf2"/>
		</linearGradient>
		<linearGradient id="g6" x1="185.3" y1="354.4" x2="283.8" y2="230.4" gradientUnits="userSpaceOnUse">
			<stop offset=".002" stop-color="#574dff"/>
			<stop offset=".18" stop-color="#6a6dff"/>
			<stop offset=".424" stop-color="#8093ff"/>
			<stop offset=".65" stop-color="#90afff"/>
			<stop offset=".849" stop-color="#9abfff"/>
			<stop offset="1" stop-color="#9dc5ff"/>
		</linearGradient>
		<linearGradient id="g7" x1="246" y1="278.6" x2="375.5" y2="96.6" gradientUnits="userSpaceOnUse">
			<stop offset=".002" stop-color="#574dff"/>
			<stop offset=".18" stop-color="#6a6dff"/>
			<stop offset=".424" stop-color="#8093ff"/>
			<stop offset=".65" stop-color="#90afff"/>
			<stop offset=".849" stop-color="#9abfff"/>
			<stop offset="1" stop-color="#9dc5ff"/>
		</linearGradient>
		<clipPath clipPathUnits="userSpaceOnUse" id="cp1">
			<path d="m314.72 271.43c-2.87 12.14-7.03 23.79-18.43 32.06q-1.41 1.02-2.92 1.99-0.87 0.56-1.78 1.08-0.28 0.19-0.58 0.35-1.67 0.98-3.43 1.86-1.33 0.67-2.7 1.28-2.02 0.92-4.13 1.72-3.25 1.26-6.73 2.23-0.36 0.11-0.71 0.2-3.86 1.06-7.96 1.73-3.13 0.54-6.37 0.86-2.1 0.2-4.23 0.28-0.29 0.02-0.59 0.04-1.87 0.09-3.78 0.08h-0.76c-35.17-0.29-62.15-20.7-63.57-45.76-3.16-55.76 34.39-95.88 69.91-95.88 35.54 0 72.33 38.37 58.76 95.88z"/>
		</clipPath>
		<linearGradient id="g8" x1="263.9" y1="353.1" x2="263.9" y2="268.6" gradientUnits="userSpaceOnUse">
			<stop offset=".001" stop-color="#ff2c6e"/>
			<stop offset=".145" stop-color="#f7296b"/>
			<stop offset=".365" stop-color="#e22261"/>
			<stop offset=".633" stop-color="#c01552"/>
			<stop offset=".936" stop-color="#90043d"/>
			<stop offset="1" stop-color="#850038"/>
		</linearGradient>
		<linearGradient id="g9" x1="283" y1="270.4" x2="283" y2="199.7" gradientUnits="userSpaceOnUse">
			<stop offset="0" stop-color="#ffae2a"/>
			<stop offset=".383" stop-color="#ffcc16"/>
			<stop offset=".763" stop-color="#ffe306"/>
			<stop offset="1" stop-color="#ffec00"/>
		</linearGradient>
		<linearGradient id="g10" x1="232.8" y1="270.4" x2="232.8" y2="199.7" gradientUnits="userSpaceOnUse">
			<stop offset="0" stop-color="#ffae2a"/>
			<stop offset=".383" stop-color="#ffcc16"/>
			<stop offset=".763" stop-color="#ffe306"/>
			<stop offset="1" stop-color="#ffec00"/>
		</linearGradient>
		<linearGradient id="g11" x1="256" y1="270.4" x2="256" y2="199.7" gradientUnits="userSpaceOnUse">
			<stop offset="0" stop-color="#ffae2a"/>
			<stop offset=".383" stop-color="#ffcc16"/>
			<stop offset=".763" stop-color="#ffe306"/>
			<stop offset="1" stop-color="#ffec00"/>
		</linearGradient>
		<linearGradient id="g12" x1="373.1" y1="363.3" x2="447.2" y2="233.9" gradientUnits="userSpaceOnUse">
			<stop offset=".002" stop-color="#574dff"/>
			<stop offset=".18" stop-color="#6a6dff"/>
			<stop offset=".424" stop-color="#8093ff"/>
			<stop offset=".65" stop-color="#90afff"/>
			<stop offset=".849" stop-color="#9abfff"/>
			<stop offset="1" stop-color="#9dc5ff"/>
		</linearGradient>
		<linearGradient id="g13" x1="62.5" y1="346" x2="124.5" y2="248.5" gradientUnits="userSpaceOnUse">
			<stop offset=".002" stop-color="#574dff"/>
			<stop offset=".18" stop-color="#6a6dff"/>
			<stop offset=".424" stop-color="#8093ff"/>
			<stop offset=".65" stop-color="#90afff"/>
			<stop offset=".849" stop-color="#9abfff"/>
			<stop offset="1" stop-color="#9dc5ff"/>
		</linearGradient>
		<linearGradient id="g14" x1="446.7" y1="247.5" x2="593.8" y2="-5.7" gradientUnits="userSpaceOnUse">
			<stop offset=".002" stop-color="#574dff"/>
			<stop offset=".18" stop-color="#6a6dff"/>
			<stop offset=".424" stop-color="#8093ff"/>
			<stop offset=".65" stop-color="#90afff"/>
			<stop offset=".849" stop-color="#9abfff"/>
			<stop offset="1" stop-color="#9dc5ff"/>
		</linearGradient>
		<linearGradient id="g15" x1="241.9" y1="101.6" x2="410.4" y2="-137.9" gradientUnits="userSpaceOnUse">
			<stop offset=".002" stop-color="#574dff"/>
			<stop offset=".18" stop-color="#6a6dff"/>
			<stop offset=".424" stop-color="#8093ff"/>
			<stop offset=".65" stop-color="#90afff"/>
			<stop offset=".849" stop-color="#9abfff"/>
			<stop offset="1" stop-color="#9dc5ff"/>
		</linearGradient>
	</defs>
	<style>
		tspan { white-space:pre } 
		.s0 { fill: url(#g1) } 
		.s1 { fill: url(#g2) } 
		.s2 { fill: #f46d6d } 
		.s3 { fill: url(#g3) } 
		.s4 { fill: url(#g4) } 
		.s5 { fill: url(#g5) } 
		.s6 { fill: url(#g6) } 
		.s7 { fill: url(#g7) } 
		.s8 { fill: #e0e7ee } 
		.s9 { fill: #ffffff } 
		.s10 { fill: #323bb4 } 
		.s11 { fill: #f9a101 } 
		.s12 { fill: url(#g8) } 
		.s13 { fill: url(#g9) } 
		.s14 { fill: #fab9b5 } 
		.s15 { fill: url(#g10) } 
		.s16 { fill: url(#g11) } 
		.s17 { fill: #f7adab } 
		.t18 { font-size: 34px;fill: #008da2;font-weight: bold;font-family: "' Josefin Sans" } 
		.t19 { font-size: 16px;fill: #008da2;font-family: "' Josefin Sans" } 
		.s20 { fill: url(#g12) } 
		.s21 { fill: url(#g13) } 
		.s22 { fill: url(#g14) } 
		.s23 { fill: url(#g15) } 
	</style>
	<g id="BACKGROUND">
		<g id="Layer">
			<path id="Layer" class="s0" d="m463.5 249.9c-6.1-13.7-17.8-26.2-22.5-40.9-8.1-25 4.8-52.6-0.4-78.4-4.6-22.6-24.3-40.9-45.9-42.6-17.9-1.3-34.9 7.6-52.7 9.9-29.8 3.9-59-10.9-88.8-16.3-26.8-4.8-54.7-1.7-79.8 8.8-16.3 6.8-33.1 19.1-35.4 37.7-1.9 14.3 5.3 29.1 1.8 43-2.6 10.4-10.9 18.2-20 23-9 4.8-19 7.3-28.5 11-20.3 8.1-38.8 23.1-47.9 44.1-9.1 20.9-7.2 48.1 7.7 65.3 7.1 8.2 16.5 13.7 24.4 21 10.3 9.6 10.1 25 16.1 37.1 6.3 12.4 17.5 20.6 28.8 27.1 14.2 8.2 30.6 12.1 46.5 10.1 22.7-2.9 43.3-16.4 66.1-18.7 23.1-2.3 45.8 7.2 68.4 13.4 25 6.9 51.4 10 76.3 3.7 25-6.3 48.3-23 59-47.8 8-18.5 8.7-40 17-58.3 4.9-11 12.7-21.1 13.6-33.3 0.5-6.7-1.2-12.9-3.8-18.9z"/>
		</g>
	</g>
	<g id="OBJECTS">
		<g id="Layer">
			<g id="Layer">
				<g id="Layer">
					<path id="Layer" class="s1" d="m384.6 165.7c-11.6-4.4-1.2-9.5 6.1-11.6 5.9-1.6 20.6-4.4 14.6-14.4-6.2-10.5-12.2 2.5-17.2 4-11.1 3.2 0.4-10.7 3.2-14.5 3.8-5.1 11.8-15.5 1.9-17.2-7.9-1.4-16.2 9.7-19.5 15.2-2.3 3.9-8.1 22.4-14.1 18.3-4.6-3.1 0.1-21.6-10.8-8.4-4.4 5.4-3.7 14-5.7 20.2-2.9 9-4.1 12.7-12.1 10.4-4.1-1.2-4.3-6.4-9.4-2.9-2.6 1.8-3.4 10.1-3.4 13 0.2 26.5 10.8 44.3 15.8 46.5 6.8 3.1 19.4-1.3 25.2-4.7 2.9-1.6 8.1-4.3 7.7-8.5-0.4-4.7-7.6-4.1-7.9-6.8-0.8-7.9 13.6-0.4 17.6-1.5 5.2-1.4 13.8-10.7 8.3-15.5-0.5-0.6-23-2.2-10.2-9.4 7.2-3.9 14.8 7.1 21.7-0.7 9.9-11.3-7.5-9.8-11.8-11.5z"/>
				</g>
				<path id="Layer" class="s2" d="m382.6 169.9c-4.9-2.1-10.1-4-15.5-4.5 3.8-4.7 7.8-9.4 10.7-14.7 0.8-1.5-1.6-2.5-2.4-1.1q-0.6 1-1.1 1.9c-0.5-1.6 0-4 0.2-5.3 0.4-3.3 1.6-6.3 2.9-9.3 0.7-1.6-1.7-2.6-2.4-1.1-1.7 4-3 7.8-3.3 12.1-0.2 2.1-0.3 4.4 0.9 6.2-4.1 6.1-9.2 11.7-13.4 17.6-1.9-2.9-3.2-5.9-3.8-9.4-0.7-3.7-0.2-7.5-0.6-11.3-0.2-1.7-2.8-1.3-2.6 0.4 0.4 4.5-0.1 8.9 1 13.4 0.9 3.3 2.4 6.3 4.3 9.2-4.9 7.1-9.4 14.5-13.1 22.3-1.3 2.5-2.4 5.2-3.5 7.8-2.5-3.7-4.5-7.5-5.9-11.7-0.8-2.4-1.7-4.9-2-7.4-0.3-1.8-0.1-3.6-0.8-5.4-0.7-1.5-3.1-0.5-2.5 1 0.9 2.2 0.6 5 1.2 7.4q0.9 3.3 2 6.6c1.6 4.4 4 8.5 6.7 12.3q0 0.1 0.1 0.2c-1.8 4.5-3.7 9.1-5.7 13.6q-0.3 0.2-0.4 0.6c-0.2 0.5-0.6 1.2-0.7 1.8-3.7 9.2-7.4 18.5-11 27.8-0.6 1.6 1.9 2.6 2.5 1.1 3.5-9.3 7.2-18.6 10.9-27.8q0 0 0-0.1c1.2-2.4 2.3-4.9 3.3-7.4 4.8 1.3 10.2-0.1 14.7-2 1.6-0.6 0.6-3-1-2.4-3.9 1.6-8.4 2.8-12.6 1.9 2.3-5.6 4.4-11.4 7.1-16.9q1.6-3.3 3.3-6.5c0.1 0.1 0.2 0.1 0.3 0.2 6.6 2.6 13.6 3.7 20.6 2.6 1.7-0.3 1.4-2.9-0.3-2.6-6.6 1-13.1 0-19.3-2.5q0 0 0 0c3.6-6.3 7.7-12.3 12-18.2q1.1-1.5 2.2-2.9c0.2 0.3 0.5 0.6 1 0.7 5.3 0.4 10.2 2.2 15 4.2 1.6 0.7 2.6-1.7 1-2.4z"/>
			</g>
			<path id="Layer" class="s3" d="m313.5 281.5c6.8-7.2 12.6-14.9 19.7-21.6-6.2-9.8-8.6-28.2-7-30.1 3.5-4.3 8 2.4 8.8 5.7 1.6 5.9 0.8 18.3-0.3 22.9q1.3-1.1 2.7-2.2 2.9-2.4 5.8-4.8c-1.8-3.4-6.1-10.6-3.7-22.3 0.4-2 1.1-4.6 3.2-5.3 2.9-1.1 3.1 2.2 3.2 4.2 0.1 3.6-0.2 15.7-0.1 21.3q5.9-4.8 11.8-9.6c-2.2-7.2-4.8-16-1.6-23.4 2.1-4.8 5.9-0.8 6.8 2.4 1.5 5.7 0.4 12.4-1.7 18.2q2.8-2.2 5.6-4.4 0.5-0.4 1-0.8c-1.3-3.5-3.1-6.7-3.2-10.6-0.1-3.8 1.5-7.2 4-10.1 1.1-1.2 2.2-2.9 4-3.1 2.5-0.3 1.5 2.4 1 4.1-1 3.5-1.8 7.1-2.5 10.7-0.3 2-0.7 3.9-1.2 5.8-0.1 0.5-0.2 1.1-0.3 1.8q4.1-3.1 8.2-6c-0.2-6.4-0.3-14.2 4-19.4 2.8-3.5 5 0.6 5 3.4-0.1 4.4-1.9 8.8-4.3 12.8q1.8-1.3 3.7-2.5c2.1-7.2 4.6-16.2 11.3-20.5 4.3-2.7 5.2 2.6 4.2 5.7-1 3-2.8 5.8-5 8.3q0.8-0.5 1.7-1 2.1-1.2 4.2-2.2c1-6.4 2.2-14.1 7.3-18.5 3.4-2.9 4.9 1.5 4.3 4.2-0.8 4.4-3.4 8.6-6.6 12.1q3.3-1.4 6.7-2.6c1.6-5 3.5-11 8.2-14 3.1-1.9 3.7 1.9 3 4-1.1 3.2-3.5 6-6.2 8.3q3.8-1.2 7.5-2.5c1.5-1.9 3.1-3.8 4.6-5.4 1.8-1.8 4-3.7 6.8-3.4 3.6 0.3 4.3 2.8 2.3 5.7-1 1.3-2.2 2.1-3.6 2.7 1.4 0.3 2.7 0.8 3.6 1.6 2.4 2.3 0.2 4.4-2.4 4.9-2.9 0.6-5.9-0.5-8.7-1.1-2-0.4-4.2-0.2-6.3-0.3q-2.5 0.8-4.9 1.6c4.3-0.2 9 0.3 12.5 2.4 2 1.1 3.9 4.4 0.3 4.9-5.8 0.8-11.4-3-15.9-5.9l-0.1-0.3c-4.6 1.7-9.2 3.5-13.6 5.9 1.5 0 2.9 0.1 4.3 0.5 2.5 0.6 5.8 3.6 2 5.3-4.9 2.2-10.6 1.1-15.7-0.3q-6.9 4.3-13.5 9.1c4.8-1.7 10.3-2.6 15-1.4 2.7 0.6 6.1 3.8 2.1 5.6-6.5 3-14.4 0.5-20.7-1.3l-0.1-0.2q-3.1 2.3-6.1 4.6-1.4 1.2-2.9 2.3c6.6-2.5 14.1-4 20.4-2.6 3.6 0.7 8.1 4.7 2.5 7.4-8.9 4.2-19.4 1.3-27.8-0.8q-4.1 3.4-8.2 6.7c6.5-0.2 20-1.5 24.4-1.5 2.1 0 6.9 0.4 5.8 3.7-0.7 1.9-4.4 3.4-6.2 3.9-4 0.9-18.6-0.5-28.2-2.6q-3 2.4-5.9 4.7-1.1 0.8-2.2 1.7c9.7-1.2 28.6-2.2 33.2-0.7 2.3 0.8 5.9 2.6 5.3 5.6-0.6 3-5.2 2.8-7.7 3.3-5.5 1.2-23.1-1.8-26.2-2.8-2.5-0.8-4.9-2.2-7.2-3.1q-2.4 2.2-4.6 4.4c7.6 1.5 25 3.9 30.4 5.1 2.5 0.6 8.1 2.5 5.8 6.1-1.3 2-6.2 2.9-8.5 2.9-4.7 0-20.5-5.2-31.3-10.2-4.5 4.9-8.8 10-13.5 15-1.4 1.5-3.9-0.6-2.5-2.1z"/>
		</g>
		<g id="Layer">
			<g id="Layer">
				<g id="Layer">
					<path id="Layer" class="s4" d="m121 157.2c11.6-4.4 1.2-9.6-6.1-11.7-5.9-1.6-20.6-4.3-14.6-14.4 6.2-10.5 12.2 2.5 17.2 4 11.1 3.2-0.4-10.7-3.2-14.4-3.8-5.1-11.7-15.5-1.9-17.3 7.9-1.4 16.2 9.7 19.5 15.2 2.3 4 8.1 22.4 14.1 18.3 4.6-3.1-0.1-21.5 10.8-8.3 4.4 5.3 3.7 13.9 5.7 20.1 2.9 9 4.1 12.7 12.1 10.4 4.1-1.2 4.3-6.4 9.4-2.9 2.6 1.8 3.4 10.1 3.4 13-0.2 26.5-10.8 44.3-15.8 46.6-6.8 3.1-19.4-1.4-25.2-4.7-2.8-1.7-8.1-4.4-7.7-8.6 0.4-4.7 7.6-4 7.9-6.8 0.8-7.8-13.6-0.3-17.6-1.5-5.2-1.4-13.7-10.6-8.3-15.5 0.5-0.5 23.1-2.2 10.2-9.3-7.2-4-14.8 7-21.7-0.8-9.9-11.3 7.5-9.8 11.8-11.4z"/>
				</g>
				<path id="Layer" class="s2" d="m123 161.3c4.9-2.1 10.1-4 15.5-4.4-3.8-4.8-7.8-9.5-10.7-14.8-0.8-1.5 1.6-2.5 2.4-1q0.6 0.9 1.2 1.9c0.4-1.6-0.1-4.1-0.3-5.3-0.4-3.4-1.6-6.4-2.9-9.4-0.7-1.6 1.7-2.6 2.4-1.1 1.7 4 3 7.8 3.3 12.1 0.2 2.1 0.3 4.4-0.9 6.2 4.1 6.1 9.2 11.7 13.4 17.6 1.9-2.9 3.2-5.9 3.8-9.3 0.7-3.8 0.2-7.6 0.6-11.3 0.2-1.7 2.8-1.4 2.7 0.3-0.5 4.5 0 9-1.1 13.4-0.9 3.4-2.4 6.3-4.3 9.2 4.9 7.1 9.4 14.5 13.2 22.3 1.2 2.6 2.3 5.2 3.4 7.9 2.5-3.7 4.5-7.6 5.9-11.8 0.8-2.4 1.7-4.9 2-7.3 0.3-1.9 0.1-3.7 0.8-5.4 0.7-1.6 3.1-0.6 2.5 0.9-0.9 2.2-0.6 5.1-1.2 7.4q-0.8 3.3-2 6.6c-1.6 4.5-4 8.5-6.7 12.3q0 0.1-0.1 0.2c1.9 4.6 3.7 9.2 5.7 13.7q0.3 0.1 0.4 0.5c0.2 0.5 0.6 1.2 0.7 1.8 3.7 9.3 7.4 18.5 11 27.8 0.6 1.6-1.9 2.7-2.5 1.1-3.5-9.3-7.2-18.5-10.9-27.8q0 0 0-0.1c-1.2-2.4-2.3-4.9-3.3-7.3-4.8 1.2-10.2-0.2-14.7-2-1.5-0.7-0.6-3.1 1-2.5 3.9 1.6 8.4 2.8 12.7 2-2.4-5.7-4.5-11.5-7.2-17q-1.6-3.3-3.3-6.5c-0.1 0.1-0.2 0.2-0.3 0.2-6.5 2.7-13.6 3.7-20.6 2.6-1.7-0.2-1.4-2.9 0.3-2.6 6.6 1 13.1 0.1 19.3-2.4q0 0 0 0c-3.6-6.3-7.7-12.4-11.9-18.3q-1.1-1.5-2.3-2.9c-0.2 0.3-0.5 0.6-1 0.7-5.2 0.4-10.2 2.2-15 4.3-1.6 0.6-2.6-1.8-1-2.5z"/>
			</g>
			<path id="Layer" class="s5" d="m192.1 272.9c-6.8-7.2-12.5-14.9-19.7-21.6 6.2-9.8 8.6-28.2 7-30.1-3.5-4.3-8 2.4-8.8 5.7-1.6 5.9-0.8 18.3 0.3 23q-1.3-1.2-2.6-2.3-3-2.4-5.9-4.8c1.8-3.4 6.1-10.6 3.7-22.3-0.4-2-1.1-4.5-3.2-5.3-2.9-1.1-3.1 2.2-3.2 4.3-0.1 3.5 0.2 15.6 0.1 21.2q-5.9-4.8-11.8-9.5c2.2-7.3 4.9-16.1 1.6-23.5-2.1-4.8-5.9-0.8-6.8 2.4-1.5 5.7-0.4 12.4 1.7 18.2q-2.8-2.2-5.6-4.4-0.5-0.4-1-0.8c1.4-3.5 3.1-6.7 3.2-10.5 0.1-3.8-1.5-7.3-4-10.1-1.1-1.3-2.2-3-4-3.2-2.5-0.3-1.5 2.4-1 4.1 1 3.5 1.8 7.2 2.5 10.8 0.3 1.9 0.7 3.8 1.2 5.7 0.1 0.5 0.2 1.1 0.3 1.8q-4-3-8.2-6c0.2-6.4 0.3-14.1-4-19.4-2.8-3.5-5 0.7-5 3.4 0.1 4.4 1.9 8.9 4.3 12.8q-1.8-1.3-3.7-2.5c-2.1-7.2-4.6-16.1-11.3-20.4-4.3-2.8-5.2 2.6-4.2 5.6 1 3 2.8 5.8 5 8.4q-0.8-0.6-1.7-1.1-2.1-1.2-4.2-2.2c-1-6.3-2.2-14.1-7.3-18.5-3.4-2.9-4.9 1.5-4.3 4.3 0.8 4.3 3.5 8.5 6.6 12q-3.3-1.4-6.7-2.6c-1.6-5-3.5-11-8.2-13.9-3.1-2-3.7 1.8-3 4 1.1 3.1 3.5 5.9 6.2 8.2q-3.8-1.2-7.5-2.5c-1.5-1.9-3.1-3.8-4.6-5.3-1.8-1.9-4-3.7-6.7-3.5-3.7 0.3-4.4 2.9-2.4 5.7 1 1.3 2.2 2.1 3.6 2.8-1.4 0.2-2.7 0.8-3.6 1.6-2.4 2.2-0.2 4.4 2.4 4.9 2.9 0.5 5.9-0.6 8.7-1.1 2-0.4 4.2-0.2 6.3-0.4q2.5 0.8 4.9 1.7c-4.2-0.3-9 0.2-12.5 2.3-2 1.2-3.9 4.5-0.3 5 5.8 0.8 11.4-3 15.9-6l0.1-0.2c4.6 1.6 9.2 3.4 13.6 5.8q-2.2 0-4.3 0.5c-2.5 0.6-5.7 3.6-2 5.3 4.9 2.2 10.6 1.1 15.7-0.2q6.9 4.3 13.5 9c-4.8-1.7-10.3-2.6-15-1.4-2.7 0.7-6.1 3.8-2.1 5.7 6.5 2.9 14.4 0.4 20.7-1.4l0.1-0.2q3.1 2.3 6.1 4.6 1.4 1.2 2.9 2.3c-6.6-2.4-14.1-3.9-20.4-2.6-3.6 0.8-8.1 4.8-2.5 7.4 8.9 4.2 19.4 1.3 27.8-0.8q4.1 3.4 8.2 6.8c-6.5-0.3-20-1.5-24.4-1.6-2.1 0-6.9 0.5-5.8 3.8 0.7 1.8 4.4 3.4 6.2 3.8 4 0.9 18.7-0.4 28.2-2.6q3 2.4 5.9 4.7 1.1 0.9 2.2 1.8c-9.7-1.2-28.6-2.3-33.2-0.8-2.3 0.8-5.9 2.6-5.3 5.6 0.6 3 5.3 2.9 7.7 3.4 5.5 1.1 23.1-1.9 26.2-2.9 2.5-0.8 4.9-2.1 7.2-3q2.4 2.1 4.6 4.3c-7.6 1.6-25 3.9-30.4 5.1-2.5 0.6-8.1 2.5-5.8 6.2 1.3 2 6.2 2.8 8.5 2.8 4.7 0 20.5-5.2 31.4-10.2 4.5 4.9 8.7 10 13.4 15 1.4 1.5 3.9-0.5 2.5-2.1z"/>
		</g>
		<g id="Layer">
			<g id="Layer">
				<path id="Layer" class="s6" d="m345.7 272.9c0 18.3-10.4 34.9-27.4 47q-2.1 1.6-4.3 3-1.3 0.8-2.7 1.6-0.4 0.2-0.9 0.5-2.4 1.4-5.1 2.7-1.9 1-4 1.9-3 1.3-6.1 2.5-4.9 1.9-10 3.3-0.6 0.1-1.1 0.3-5.7 1.5-11.8 2.5-4.7 0.8-9.5 1.3-3.1 0.3-6.3 0.4-0.4 0-0.9 0-2.8 0.2-5.6 0.2h-1.1c-52.4-0.4-94.6-30.4-94.6-67.2 0-37.1 42.8-67.2 95.7-67.2 52.9 0 95.7 30.1 95.7 67.2z"/>
				<path id="Layer" class="s7" d="m313.1 272.9c0 12.1-6.9 23-18.1 31q-1.3 1-2.8 2-0.9 0.5-1.8 1-0.3 0.2-0.5 0.3-1.7 1-3.4 1.8-1.3 0.7-2.7 1.3-1.9 0.9-4 1.6-3.2 1.3-6.6 2.2-0.4 0.1-0.7 0.2-3.8 1-7.8 1.7-3.1 0.5-6.3 0.8-2 0.2-4.1 0.3-0.3 0-0.6 0-1.8 0.1-3.7 0.1h-0.8c-34.5-0.3-62.3-20-62.3-44.3 0-24.5 28.2-44.3 63.1-44.3 34.9 0 63.1 19.8 63.1 44.3z"/>
				<path id="Layer" class="s8" d="m266.3 260.3l27.2 19.1 3.8-0.5-26.5-18.6z"/>
				<path id="Layer" class="s8" d="m263.8 283.1l27.2 19.1 3.8-0.5-26.5-18.6z"/>
				<g id="Layer">
					<path id="Layer" fill-rule="evenodd" class="s9" d="m299.2 265.6l-8.8 41.3c-1.1 0.6-2.8 1.6-3.9 2.1q-1.3 0.7-2.7 1.3l1-4.3-24.1-17.6-3.3 14.6 15.8 11.1q-0.4 0.1-0.7 0.2-3.8 1-7.8 1.7l-8.7-6.4-1.7 7.5q-0.3 0-0.6 0-1.8 0.1-3.7 0.1h-0.7l16.2-76.1 4.9 4.2-3.4 15 23.9 16.8 0.5-2.4 2.9-13.2zm-9.9 18.7l-23.8-17.5-3.3 15 24.1 16.9z"/>
					<path id="Layer" class="s8" d="m303.1 265.6l-8.1 38.3q-1.3 1-2.8 2-0.9 0.5-1.8 1l8.8-41.3c0 0 3.9 0 3.9 0z"/>
					<path id="Layer" class="s8" d="m299.2 265.6l-4.9-4.1h3.9l4.9 4.1z"/>
					<path id="Layer" class="s8" d="m270.4 245.3h3.9l-4.9-4.2h-3.9z"/>
					<path id="Layer" class="s8" d="m270.4 245.3h3.9l-3.3 15h-4z"/>
				</g>
			</g>
			<g id="Layer">
				<g id="Clip-Path" clip-path="url(#cp1)">
					<g id="Layer">
						<g id="Layer">
							<path id="Layer" class="s10" d="m270 208.2c-1.7-5.4-5-9.6-7.6-14.5-0.7-1.2-1.5-2.4-2.1-3.7-0.3-0.5-1.6-3-2.9-5.5-1.8-3.6-5.7-5.1-9.1-3.6-2.1 0.8-3.8 2.7-4.5 5-1.2 3.7-3.7 8.7-5.1 10.3-2.5 2.9-5.6 5.7-7.5 9.2-1.1 2.1-1.1 4.3-1.7 6.5 0.6-1.9 2.8-3.3 4.3-4.4 0.2 1.6-0.7 4.1-0.8 5.8-0.3 2.8 0.1 5.4 1 8 2.1 5.9 6.3 9.9 9.7 14.9 0.8 1.2 1.3 2.4 2.2 3.6 0.3 0.3 0.8 1.4 1.3 1.3 0.6 0 2.3-2.1 2.7-2.5 4.2-4.1 9.6-6.5 12.7-11.9 2.1-3.5 2.7-7.5 4.1-11.3 0.7 2.1 0.4 4.5 1 6.7 1.9-4.6 3.8-9.1 2.3-13.9z"/>
						</g>
						<g id="Layer">
							<path id="Layer" class="s11" d="m261.5 362c0 0-6.7 3-4.1 6.1 3.6 2.2 8.1 4.6 9.7 7.3 1.2 1.9 3.5 2.8 5.7 2.5q0.4-0.1 0.4-0.1c1 0.7 2.5 0.1 2.5-1.2 0.1-2-1.3-5.3-7.8-10.4z"/>
							<path id="Layer" class="s12" d="m278.7 288.3q0 0-0.1 0-1.2-1.7-2.3-3.1c-1.7-2.6-2.6-5.2-2.1-7.9l-23.4-0.1-11.1-1.6q0.2 0.8 0.4 1.5c0 0-0.9 5.9 4.5 19 7 35.5 6.9 72.2 1.4 111l7.7 0.3c9.7-42.1 10.2-79.6 7-115l0.4-0.1c21.3 22.5 13.1 45.1 0.2 70.3l6 5c31.8-39 20-67 11.4-79.3z"/>
							<path id="Layer" class="s11" d="m246.1 406.4c0 0-4.8 4.4-0.9 5.8l19 1.6c1.3 0.1 2.2-1.2 1.6-2.3-1-1.7-3.9-3.9-12.1-4.9z"/>
						</g>
						<g id="Layer">
							<path id="Layer" class="s13" d="m265.8 216.3c-1.5 1.1-1.6 3-1.3 4.5 0.1 1.1 0.5 2.1 1 3 1.5 3.2 7.4 14.6 11.9 19.1 2 2 5.1 2.4 7.6 1 5.3-3.2 14.3-8.8 16.7-11.8-0.3-0.4-0.2-0.3-0.6-0.9-0.5-0.5-1.4-1.8-2-2.4-3.4 2.7-16.5 5.1-16.5 5.1 0 0-7.7-11.6-9.3-16.1-1-2.6-3.7-4.3-7.5-1.5z"/>
							<path id="Layer" class="s14" d="m301.7 232.1c4.5-2.4 8.1-5.3 9.1-10.5 0.2-0.9-1.6-2-2.9-1-1.4 0.9-3.4 3.2-4.2 5-0.2-0.6 0.2-1.9-0.1-2.5-0.2-0.6-0.3-1.5-1.5-0.5-1.1 1-2.5 4.3-2.9 6.1 0.8 1.2 1.7 2.2 2.5 3.4z"/>
						</g>
						<g id="Layer">
							<path id="Layer" class="s15" d="m251 215.5c1.3 1.3 1.2 3.2 0.8 4.7-0.3 1-0.7 2-1.3 2.9-1.9 3-8.8 13.8-13.8 17.8-2.2 1.8-5.3 1.9-7.6 0.2-5-3.7-13.4-10.2-15.5-13.3 0.4-0.4 0.2-0.3 0.7-0.8 0.5-0.5 1.6-1.7 2.2-2.3 3.1 3 16 6.7 16 6.7 0 0 8.8-10.7 10.9-15.1 1.2-2.5 4-3.9 7.6-0.8z"/>
							<path id="Layer" class="s14" d="m213.6 227.7c-4.2-2.8-7.5-6-8-11.3 0-0.9 1.8-1.8 3-0.7 1.3 1.1 3.1 3.5 3.7 5.4 0.2-0.6 0-1.9 0.3-2.4 0.3-0.6 0.5-1.5 1.5-0.4 1.1 1.1 2.2 4.5 2.4 6.3-0.9 1.1-1.9 2.1-2.9 3.1z"/>
						</g>
						<path id="Layer" class="s16" d="m274.9 279.5c-2.8 1.9-5.9 3.1-9.2 3.7-9 1.6-19.4-0.9-28.7-4.5 0 0 1.6-5.8 4-11.1 2.8-6 6-11.9 5.7-18.7-0.2-3.2-1.2-6.4-2.4-9.3-0.9-2.4-1.3-4.8-0.9-7.3 0.3-1.9 0.9-3.7 1.3-5.5 0.6-3.2 4.4-12.6 4.4-12.6l2.1 1 2.3 1.1c0.4-0.1 1.4-0.4 1.6-0.8q0.1-0.1 0.1-0.2l-0.1-1.3 7 0.1 0.1 1.1c0.1 0.8 0 1.4 0.8 1.5 0.7 0 1.6-0.2 2.4-0.5 1.3-0.4 2.5-1.1 2.6-1.1 0.1 0 5 17.4 4.2 21.8-1 5.1-3.6 8.9-4.1 14.2-0.2 1.6 0.1 4.3 0.7 5.8 3.2 9.7 6.1 22.6 6.1 22.6z"/>
						<path id="Layer" class="s14" d="m258.4 228.5c0 0-7.7 0.3-7.2-13.3l2.3 1.1c0.4-0.1 1.4-0.4 1.6-0.8q0.1-0.1 0.1-0.2l-0.1-1.3 7 0.1 0.1 1.1c0.1 0.8 0 1.4 0.8 1.5 0.7 0 1.6-0.2 2.4-0.5 0.8 6-2.1 12.2-7 12.3z"/>
						<path id="Layer" class="s17" d="m255.2 215.3c3.1 0.8 5.3 0.2 6.9-1.2l-0.4-5.3-7 1.6z"/>
						<path id="Layer" class="s14" d="m270.1 196c-0.5 0-1 0.1-1.5 0.4-0.7-3.1-2.4-6.5-4.4-8.8-0.9-1.2-1.9-1.9-2.9-2.4q-0.9-0.4-1.8-0.5-0.6-0.1-1.2-0.1-0.6 0-1.2 0.1-0.9 0.1-1.8 0.5c-1.1 0.4-2.1 1.2-3 2.3-2.1 2.3-3.8 5.6-4.5 8.8-0.5-0.3-1-0.5-1.5-0.5-1.6 0.2-2.1 2.7-1.7 4.5 0.5 2.4 2.4 3.2 4 3.7 0.8 1.6 1.9 3.1 3.2 4.4 1.3 1.6 3 2.7 4.9 3.2q0.1 0 0.2 0.1 0.2 0 0.3 0 0.1 0.1 0.3 0.1 0.1 0 0.2 0 0.2 0 0.4 0 0.2 0 0.5 0 0.1 0 0.2 0 0.1 0 0.2-0.1 0.2 0 0.3 0 0.1 0 0.2-0.1c2-0.4 3.7-1.6 5-3.1 1.3-1.3 2.4-2.8 3.2-4.4 1.7-0.5 3.5-1.2 4.1-3.6 0.4-1.9-0.1-4.3-1.7-4.5z"/>
						<g id="Layer">
							<g id="Layer">
								<g id="Layer">
									<g id="Layer">
										<path id="Layer" class="s10" d="m253.5 199.8c0.1 0.5 0.5 0.9 1 0.9 0.6-0.1 1-0.5 1-1.1-0.1-0.5-0.5-0.9-1.1-0.9-0.5 0.1-0.9 0.5-0.9 1.1z"/>
									</g>
								</g>
								<g id="Layer">
									<g id="Layer">
										<path id="Layer" class="s10" d="m261.4 199.8c0 0.5 0.5 0.9 1 0.9 0.5 0 0.9-0.5 0.9-1 0-0.5-0.5-0.9-1-0.9-0.6 0-1 0.5-0.9 1z"/>
									</g>
								</g>
								<g id="Layer">
									<g id="Layer">
										<path id="Layer" class="s10" d="m252.6 197.9q-0.1 0-0.1 0c-0.1 0-0.2-0.2-0.1-0.4 0.7-1.7 2.3-1.6 3-1.3 0.2 0 0.3 0.2 0.2 0.3-0.1 0.2-0.2 0.3-0.4 0.2 0 0-1.6-0.6-2.3 1.1-0.1 0.1-0.2 0.2-0.3 0.1z"/>
									</g>
								</g>
								<g id="Layer">
									<g id="Layer">
										<path id="Layer" class="s10" d="m260.9 195.6q0 0 0 0c-0.1-0.2-0.1-0.3 0.1-0.4 1.7-0.8 2.8 0.2 3.2 0.9 0.1 0.1 0 0.3-0.1 0.4-0.1 0-0.3 0-0.4-0.1 0-0.1-0.9-1.5-2.5-0.7-0.1 0.1-0.3 0-0.3-0.1z"/>
									</g>
								</g>
								<g id="Layer">
									<g id="Layer">
										<path id="Layer" class="s10" d="m255 205.1q0-0.1 0-0.1c-0.1-0.1 0-0.4 0.2-0.4 2-1.1 3.5 0.2 4 1 0 0.2 0 0.4-0.2 0.5-0.1 0.1-0.3 0-0.5-0.1 0-0.1-1-1.8-3-0.8-0.2 0.1-0.4 0-0.5-0.1z"/>
									</g>
								</g>
								<g id="Layer">
									<path id="Layer" class="s10" d="m259.2 203.7c-0.2 0-0.3-0.1-0.3-0.2 0-0.2 0.1-0.3 0.3-0.3 0 0 0.5 0 0.7-0.3 0-0.1 0.1-0.5-0.7-1.5-0.1-0.1 0-0.3 0.1-0.4 0.1-0.1 0.3 0 0.4 0.1q1 1.3 0.7 2c-0.3 0.6-1.2 0.6-1.2 0.6z"/>
								</g>
							</g>
						</g>
						<g id="Layer">
							<path id="Layer" class="s10" d="m269.5 190.1c-0.8-3.3-3.3-6.3-6.7-7.4-3.4-1.2-7.8-0.9-10.8 0.8-3.9 2.3-6.8 7.8-4.8 12.3 0.7 1.4 1.1 3.6 2.3 4.7 0.5-1.7 0.2-3.4 0.9-5 1.2-0.2 2.4-0.6 3.5-1 1.7-0.6 3.5-1.7 4.9-2.9 1.1-0.9 1.8-1.9 2.6-3-0.6 1.4 0.4 4 1.3 5 0.9 0.9 2.2 1.3 3 2.2 0.8 0.8 1 1.8 1 2.9q0.1 1.4-0.3 2.6c0.1-0.3 0.7-0.7 0.8-1q0.5-0.6 0.8-1.3c0.4-0.9 0.8-1.9 1-2.9 0.4-1.8 0.8-4.3 0.5-6z"/>
						</g>
					</g>
				</g>
			</g>
		</g>
		<text id="OOPS!" style="transform: matrix(1,0,0,1,197.897,165.664)" >
			<tspan x="0" y="0" class="t18">OOPS!
</tspan>
		</text>
		<text id="We can´t find the page :(" style="transform: matrix(1,0,0,1,159.494,364.982)" >
			<tspan x="0" y="0" class="t19">We can´t find the page :(
</tspan>
		</text>
		<g id="Layer">
			<path id="Layer" fill-rule="evenodd" class="s20" d="m452.5 306.4l11.2 1.3-7.3 21.3-15.9-0.9-6.7 19.5-33.7-3.2 1.9-5.9 4.7-14.8-66.7-8.3 6.9-17.3 72.8-56.9 46.1 3.9-19.4 60.5zm-27.2-41.4l-41 33.2 17.9 2.1 10.9 1.3 4.7-13.9z"/>
			<path id="Layer" fill-rule="evenodd" class="s21" d="m136.7 297.6l11.4 0.5-5.9 21.8-15.9 0.3-5.3 19.9-33.9-0.9 1.5-6 3.7-15.1-67.1-3.7 5.6-17.8 68.7-61.7 46.3 0.7-15.2 61.7zm-30-39.5l-38.6 36 18 0.9 11 0.5 3.7-14.2z"/>
			<path id="Layer" class="s22" d="m340.1 315.4l1.3 15.5 60.6 7.6 4.7-14.8zm44.2-17.2l17.9 2.1 15.6-12.6 7.6-22.8zm72.1 30.9l-15.9-0.8-6.7 19.5-33.6-3.3 1.3 15.6 33.7 3.2 6.6-19.5 15.9 0.8 7.4-21.3-1.3-15.5zm-10-23.3l6.1 0.7 14.6-45.8-1.4-15.5z"/>
		</g>
		<g id="Layer">
			<path id="Layer" class="s23" d="m25.2 314.4l2.4 15.3 61 3.5 3.7-15.1zm42.8-20.2l18 0.8 14.8-13.7 5.9-23.1zm74.1 25.8l-15.9 0.2-5.3 19.9-33.8-0.8 2.4 15.3 33.8 0.9 5.3-19.9 15.9-0.3 5.9-21.7-2.4-15.4zm-11.5-22.6l6.1 0.3 11.4-46.6-2.4-15.4z"/>
		</g>
	</g>
</svg>